<?xml version="1.0" encoding="UTF-8"?>
<svg id="Camada_2" data-name="Camada 2" xmlns="http://www.w3.org/2000/svg" viewBox="0 0 63 63">
  <defs>
    <style>
      .cls-1 {
        fill: #fff;
      }

      .cls-2 {
        fill: #0381d5;
      }
    </style>
  </defs>
  <g id="Camada_1-2" data-name="Camada 1">
    <g>
      <rect class="cls-2" width="63" height="63" rx="2.28" ry="2.28"/>
      <g>
        <path class="cls-1" d="M23.52,47.39h-6.17v-23.25c-2.25,2.11-4.91,3.67-7.97,4.68v-5.6c1.61-.53,3.36-1.53,5.25-3,1.89-1.47,3.18-3.19,3.89-5.15h5.01v32.32Z"/>
        <path class="cls-1" d="M43.17,15.07c3.12,0,5.56,1.11,7.31,3.34,2.09,2.63,3.14,7,3.14,13.11s-1.05,10.47-3.16,13.13c-1.74,2.2-4.17,3.29-7.29,3.29s-5.66-1.2-7.57-3.61c-1.92-2.41-2.88-6.7-2.88-12.88s1.05-10.42,3.16-13.09c1.74-2.2,4.17-3.29,7.29-3.29ZM43.17,20.18c-.75,0-1.41.24-2,.71s-1.04,1.33-1.36,2.56c-.42,1.6-.64,4.28-.64,8.06s.19,6.37.57,7.78c.38,1.41.86,2.35,1.44,2.82.58.47,1.24.7,1.99.7s1.41-.24,2-.71,1.04-1.33,1.36-2.56c.42-1.58.64-4.26.64-8.04s-.19-6.37-.57-7.78c-.38-1.41-.86-2.36-1.44-2.83-.58-.48-1.24-.71-1.99-.71Z"/>
      </g>
    </g>
  </g>
</svg>