<?xml version="1.0" encoding="UTF-8"?>
<svg id="Camada_2" data-name="Camada 2" xmlns="http://www.w3.org/2000/svg" viewBox="0 0 63 63">
  <defs>
    <style>
      .cls-1 {
        fill: #fff;
      }

      .cls-2 {
        fill: #f4c121;
      }
    </style>
  </defs>
  <g id="Camada_1-2" data-name="Camada 1">
    <g>
      <rect class="cls-2" width="63" height="63" rx="2.28" ry="2.28"/>
      <g>
        <path class="cls-1" d="M23.54,47.66h-6.17v-23.25c-2.25,2.11-4.91,3.67-7.97,4.68v-5.6c1.61-.53,3.36-1.53,5.25-3,1.89-1.47,3.18-3.19,3.89-5.15h5.01v32.32Z"/>
        <path class="cls-1" d="M53.6,41.93v5.73h-21.63c.23-2.17.94-4.22,2.11-6.16,1.17-1.94,3.48-4.51,6.94-7.72,2.78-2.59,4.49-4.35,5.12-5.27.85-1.27,1.27-2.53,1.27-3.78,0-1.38-.37-2.43-1.11-3.17-.74-.74-1.76-1.11-3.06-1.11s-2.31.39-3.07,1.16c-.76.78-1.2,2.06-1.32,3.86l-6.15-.62c.37-3.4,1.52-5.83,3.45-7.31,1.93-1.48,4.35-2.22,7.25-2.22,3.18,0,5.67.86,7.49,2.57,1.81,1.71,2.72,3.84,2.72,6.39,0,1.45-.26,2.83-.78,4.14s-1.34,2.68-2.47,4.12c-.75.95-2.09,2.32-4.04,4.11-1.95,1.79-3.18,2.97-3.7,3.56-.52.59-.94,1.16-1.26,1.71h12.25Z"/>
      </g>
    </g>
  </g>
</svg>