<?xml version="1.0" encoding="UTF-8"?>
<svg id="Camada_2" data-name="Camada 2" xmlns="http://www.w3.org/2000/svg" viewBox="0 0 63 63">
  <defs>
    <style>
      .cls-1 {
        fill: #fff;
      }

      .cls-2 {
        fill: #d0010b;
      }
    </style>
  </defs>
  <g id="Camada_1-2" data-name="Camada 1">
    <g>
      <rect class="cls-2" width="63" height="63" rx="2.28" ry="2.28"/>
      <g>
        <path class="cls-1" d="M23.21,47.39h-6.17v-23.25c-2.25,2.11-4.91,3.67-7.97,4.68v-5.6c1.61-.53,3.36-1.53,5.25-3,1.89-1.47,3.18-3.19,3.89-5.15h5.01v32.32Z"/>
        <path class="cls-1" d="M53.34,23.08l-5.97.66c-.15-1.23-.53-2.14-1.14-2.72-.61-.59-1.41-.88-2.39-.88-1.3,0-2.4.59-3.3,1.76-.9,1.17-1.47,3.61-1.7,7.31,1.54-1.82,3.45-2.72,5.73-2.72,2.58,0,4.78.98,6.62,2.94,1.84,1.96,2.76,4.49,2.76,7.6,0,3.29-.97,5.94-2.9,7.93-1.93,1.99-4.41,2.99-7.44,2.99-3.25,0-5.92-1.26-8.01-3.79-2.09-2.53-3.14-6.66-3.14-12.42s1.09-10.15,3.27-12.76,5.01-3.91,8.5-3.91c2.44,0,4.47.68,6.07,2.05,1.6,1.37,2.62,3.36,3.06,5.96ZM39.35,36.54c0,2.01.46,3.55,1.38,4.64.92,1.09,1.98,1.64,3.16,1.64s2.09-.45,2.85-1.34,1.14-2.36,1.14-4.39-.41-3.63-1.23-4.6-1.84-1.46-3.07-1.46-2.19.46-3.01,1.39c-.82.93-1.23,2.3-1.23,4.12Z"/>
      </g>
    </g>
  </g>
</svg>