<?xml version="1.0" encoding="UTF-8"?>
<svg id="Camada_2" data-name="Camada 2" xmlns="http://www.w3.org/2000/svg" viewBox="0 0 63 63">
  <defs>
    <style>
      .cls-1 {
        fill: #010101;
      }

      .cls-2 {
        fill: #fff;
      }
    </style>
  </defs>
  <g id="Camada_1-2" data-name="Camada 1">
    <g>
      <rect class="cls-1" width="63" height="63" rx="2.28" ry="2.28"/>
      <g>
        <path class="cls-2" d="M23.42,47.37h-6.17v-23.25c-2.25,2.11-4.91,3.67-7.97,4.68v-5.6c1.61-.53,3.36-1.53,5.25-3,1.89-1.47,3.18-3.19,3.89-5.15h5.01v32.32Z"/>
        <path class="cls-2" d="M37.93,30.01c-1.6-.67-2.76-1.6-3.48-2.78-.72-1.18-1.09-2.47-1.09-3.88,0-2.4.84-4.38,2.51-5.95,1.68-1.57,4.06-2.35,7.15-2.35s5.43.78,7.12,2.35c1.69,1.57,2.54,3.55,2.54,5.95,0,1.49-.39,2.82-1.16,3.99s-1.87,2.05-3.27,2.67c1.79.72,3.14,1.76,4.07,3.14.93,1.38,1.39,2.96,1.39,4.76,0,2.97-.95,5.39-2.84,7.25-1.9,1.86-4.42,2.79-7.56,2.79-2.93,0-5.36-.77-7.31-2.31-2.3-1.82-3.45-4.3-3.45-7.47,0-1.74.43-3.34,1.3-4.8.86-1.46,2.23-2.58,4.08-3.37ZM38.64,37.58c0,1.7.44,3.02,1.31,3.97.87.95,1.96,1.43,3.26,1.43s2.33-.46,3.16-1.37c.83-.91,1.25-2.24,1.25-3.96,0-1.51-.42-2.72-1.27-3.63s-1.92-1.37-3.23-1.37c-1.51,0-2.63.52-3.37,1.56-.74,1.04-1.11,2.17-1.11,3.38ZM39.21,23.79c0,1.23.35,2.19,1.04,2.88.7.69,1.62,1.03,2.78,1.03s2.11-.35,2.81-1.04,1.05-1.66,1.05-2.89c0-1.16-.35-2.08-1.04-2.78-.7-.69-1.61-1.04-2.76-1.04s-2.13.35-2.83,1.05c-.7.7-1.05,1.63-1.05,2.79Z"/>
      </g>
    </g>
  </g>
</svg>