<svg width="21" height="21" viewBox="0 0 21 21" fill="none" xmlns="http://www.w3.org/2000/svg">
<path d="M16.5 16.4142C17.0304 16.4142 17.5391 16.6249 17.9142 17C18.2893 17.3751 18.5 17.8838 18.5 18.4142C18.5 18.9446 18.2893 19.4534 17.9142 19.8284C17.5391 20.2035 17.0304 20.4142 16.5 20.4142C15.9696 20.4142 15.4609 20.2035 15.0858 19.8284C14.7107 19.4534 14.5 18.9446 14.5 18.4142C14.5 17.3042 15.39 16.4142 16.5 16.4142ZM0.5 0.414213H3.77L4.71 2.41421H19.5C19.7652 2.41421 20.0196 2.51957 20.2071 2.70711C20.3946 2.89464 20.5 3.149 20.5 3.41421C20.5 3.58421 20.45 3.75421 20.38 3.91421L16.8 10.3842C16.46 10.9942 15.8 11.4142 15.05 11.4142H7.6L6.7 13.0442L6.67 13.1642C6.67 13.2305 6.69634 13.2941 6.74322 13.341C6.79011 13.3879 6.8537 13.4142 6.92 13.4142H18.5V15.4142H6.5C5.96957 15.4142 5.46086 15.2035 5.08579 14.8284C4.71071 14.4534 4.5 13.9446 4.5 13.4142C4.5 13.0642 4.59 12.7342 4.74 12.4542L6.1 10.0042L2.5 2.41421H0.5V0.414213ZM6.5 16.4142C7.03043 16.4142 7.53914 16.6249 7.91421 17C8.28929 17.3751 8.5 17.8838 8.5 18.4142C8.5 18.9446 8.28929 19.4534 7.91421 19.8284C7.53914 20.2035 7.03043 20.4142 6.5 20.4142C5.96957 20.4142 5.46086 20.2035 5.08579 19.8284C4.71071 19.4534 4.5 18.9446 4.5 18.4142C4.5 17.3042 5.39 16.4142 6.5 16.4142ZM15.5 9.41421L18.28 4.41421H5.64L8 9.41421H15.5Z" fill="white"/>
</svg>
